# xmcd
# Copyright (c) 1998 CDDB Inc.
#
# Track frame offsets:
#	150
#	17487
#	30681
#	44631
#	58699
#	71266
#	82845
#	96871
#	112361
#	126916
#	140952
#	154475
#	172796
#	189109
#	204879
#	219276
#	231604
#	249764
#	271329
#	289084
#
# Disc length: 4075 seconds
#
# Revision: 1
# Processed by: cddbd v1.4PL0 Copyright (c) Steve Scherf et al.
# Submitted via: audiograbber 1.70
#
DISCID=1e0fe914
DTITLE=Chrystian and Ralf - As 20 Mais
DYEAR=1900
DGENRE=
TTITLE0=De cara cheia
TTITLE1=Quebradas da noite
TTITLE2=Camisa manchada
TTITLE3=Noite de tortura
TTITLE4=Casa da esquina
TTITLE5=Cama fria
TTITLE6=Machucando o coração
TTITLE7=Endoidei de vez
TTITLE8=Vazio da solidão
TTITLE9=Apaixonei de novo
TTITLE10=Paixão preferida
TTITLE11=O mais fraco coração
TTITLE12=Tempo ao tempo
TTITLE13=Esta noite eu queria que o mundo acabasse
TTITLE14=Chora peito
TTITLE15=Que queres tu de mim
TTITLE16=A melhor mentira
TTITLE17=Olhos de luar
TTITLE18=Caminheiro
TTITLE19=Poeira
EXTD=
EXTT0=
EXTT1=
EXTT2=
EXTT3=
EXTT4=
EXTT5=
EXTT6=
EXTT7=
EXTT8=
EXTT9=
EXTT10=
EXTT11=
EXTT12=
EXTT13=
EXTT14=
EXTT15=
EXTT16=
EXTT17=
EXTT18=
EXTT19=
PLAYORDER=
